<svg xmlns="http://www.w3.org/2000/svg" version="1.0" viewBox="0 0 200 200">
  <defs/>
  <path d="M96.5 4.4C91 6.9 87 12.9 87 18.7c0 2-.3 2.4-1.7 1.7-1-.4-3.8-.9-6.3-1.1-5.8-.5-10.8 2.1-13.7 7.3-2.2 3.8-2.3 4.8-2.3 30.2v26.3l-2.6-2c-3.6-2.8-8.2-3.5-12.8-1.8-3.7 1.3-3.9 1.6-7 10.8-2 6.1-5.2 12.8-8.8 18.5l-5.6 8.9 1.4 9.5c5.5 36.9 18.3 62.5 35.2 70.3 4.5 2.1 5.8 2.2 40.2 2.2h35.5l6.1-2.8c7.7-3.6 14.5-10.4 18.1-18.2l2.8-6 .3-62c.2-55.1.1-62.5-1.3-66.2-3-7.7-10.9-11.5-18.4-8.9l-4.1 1.4v-6.2c-.1-12.3-6.2-19.2-16.3-18.4-2.8.2-5.9.7-6.7 1.1-1 .5-2.2-.4-3.7-2.8-1.3-1.9-3.3-4.1-4.6-5-3.4-2.2-10.6-2.8-14.2-1.1zm11.7 7.5l3.3 2.9.3 47c.2 42 .4 47.1 1.9 47.6 4.2 1.6 4.3.5 4.3-44.4V22.1l2.6-2c3.6-2.8 8.6-2.7 12.1.3l2.8 2.4.3 44.7c.2 38.3.5 44.7 1.7 45.2.9.3 2.2 0 3-.7 1.3-1.1 1.5-6.2 1.5-33.9V45.3l2.4-2.2c3.5-3.3 9-3.1 12.5.3l2.6 2.6v125.5l-2.4 4.9c-3.1 6.3-8.4 11.6-14.7 14.7-4.9 2.4-4.9 2.4-39.4 2.4-34.1 0-34.5 0-38.8-2.3-13.7-7.3-24.3-28.6-29.8-59.7-2-11.3-1.8-13.1 1.7-18.1 4.1-5.9 10.6-19.9 11.4-24.6.6-3 1.2-3.8 3.5-4.3 5.2-1.1 7.9 1.9 9.4 10.4.4 2.5-.3 5.6-2.9 12.2-4.3 10.7-5.5 20-3.2 24.5 1.7 3.2 6.1 4.9 19.2 7.3 8.2 1.5 14.4 4.9 18.4 10.2 3.7 4.9 5.2 5.7 7 3.5 1-1.2.9-2.1-.3-4.3-3.7-7.3-12.8-13.2-23.4-15.4l-6.2-1.3V30.8l2.9-2.9c3.8-3.8 9.1-4 12.6-.4l2.5 2.4v36.4c0 38.3.2 39.7 4.4 38.1 1.4-.6 1.6-4.9 1.6-44.3.1-46.6.1-46.9 5.1-49.7 3.7-2.1 6.6-1.6 10.1 1.5zM63 120.6c0 8.6-.2 9.5-1.7 9.2-2.5-.4-2.8-6.5-.8-13.3.8-3 1.8-5.5 2-5.5.3 0 .5 4.3.5 9.6z"/>
</svg>