<svg xmlns="http://www.w3.org/2000/svg" version="1.0" viewBox="0 0 200 200">
  <defs/>
  <path d="M97.6 46C91.9 47.7 87 54.3 87 60.1c0 2.6-.3 3-1.7 2.4-4.1-1.7-10.8-1.6-14.3.2-5.4 2.8-8 7.5-8 14.5v5.9l-2.6-2c-3.6-2.8-8.2-3.5-12.8-1.8-3.7 1.3-3.9 1.6-7 10.8-2 6.1-5.2 12.8-8.8 18.5l-5.6 8.9 1.3 9.2c5.4 35.8 18 61.6 33.8 69.2 7 3.4 18.2 4.3 49.6 3.9l27.6-.3 6-2.8c7.8-3.6 14.6-10.4 18.2-18.1l2.8-6.1V124c0-48.4 0-48.5-2.2-52.1-3.2-5-7.7-7.2-13.8-6.7-2.8.3-5.7.8-6.7 1.2-1.2.6-1.8.1-2.3-2.3-.7-3.4-6.3-8.8-10-9.7-2.7-.7-9.1-.1-11.6 1-1.2.5-2.3-.3-3.9-3-1.4-2.2-3.9-4.4-6.4-5.5-4.5-2-6.6-2.2-11-.9zm11.2 8.6c2.2 2.5 2.2 2.8 2.2 33v30.5l-2.5 2.4c-3.7 3.8-9.5 3.5-12.9-.6l-2.6-3.1V87.4c0-18.3.4-30.3 1-31.4 2.8-5.3 10.7-6 14.8-1.4zm23.7 7.9l2.5 2.4v49.8l-2.6 2.4c-3.7 3.5-9.8 3.3-13-.4-2.4-2.8-2.4-2.9-2.4-26.7V66.2l2.6-3.1c3.4-4.1 9.2-4.4 12.9-.6zm-48.6 7.1l3.1 2.6V90c0 17.4-.1 18-2.4 20.7-3.4 3.9-9.8 3.9-13.2 0-2.3-2.7-2.4-3.3-2.4-20.3V72.8l2.9-2.9c3.7-3.7 7.9-3.8 12-.3zm71.8 2.9c1.2.9 2.7 3.2 3.3 5.3 1.3 4.7 1.3 20.6 0 25.3-2 7.1-9.9 9.2-15.1 4l-2.9-2.9V90.7c0-13.1.1-13.6 2.6-16.6 2-2.4 3.4-3.1 6.3-3.1 2 0 4.6.7 5.8 1.5zM55.5 84.6c2 .8 4 4.8 4.9 9.7.6 3.2 0 5.5-2.9 12.8-4.3 10.6-5.5 20-3.2 24.5 1.2 2.3 2.8 3.4 7 4.7 2.9.9 6.8 1.7 8.5 1.7 7.7 0 17.4 5.2 21.5 11.6 2.5 3.9 6 4.3 6.5.8.9-6-13.2-16.6-23.8-18l-5-.7v-14.5l4.5 1.7c4 1.4 4.9 1.4 8.7.1l4.3-1.5 2 3.4c1.1 2 3.6 4.6 5.5 5.9 2.9 2 4.4 2.3 9.3 2 4.8-.4 6.3-.9 9-3.6l3.3-3.2 3.9 2c2.2 1.1 5.1 2 6.5 2 4.5 0 11.3-4.2 13.5-8.3 1.4-2.6 2.5-3.5 3.5-3.1 3.8 1.6 10.8 1.6 13.9 0l3.2-1.7-.3 29.3c-.3 28.7-.4 29.4-2.7 34.2-3.1 6.3-8.4 11.6-14.7 14.7-4.9 2.4-5 2.4-38.4 2.4-32.1 0-33.7-.1-38.1-2.1-14.1-6.5-24.4-25.2-30.4-54.8-3.2-15.9-3.2-17.8.6-23.2 4.1-5.9 10.6-19.9 11.4-24.6.8-4.2 3.8-5.8 8-4.2zm7.5 36c0 8.6-.2 9.5-1.7 9.2-2.5-.4-2.8-6.5-.8-13.3.8-3 1.8-5.5 2-5.5.3 0 .5 4.3.5 9.6z"/>
</svg>